<?xml version="1.0" standalone="no"?>
<!DOCTYPE svg PUBLIC "-//W3C//DTD SVG 20010904//EN"
 "http://www.w3.org/TR/2001/REC-SVG-20010904/DTD/svg10.dtd">
<svg version="1.0" xmlns="http://www.w3.org/2000/svg"
 width="1440.000000pt" height="120.000000pt" viewBox="0 0 1440.000000 120.000000"
 preserveAspectRatio="xMidYMid meet">

<g transform="translate(0.000000,120.000000) scale(0.100000,-0.100000)"
fill="#000000" stroke="none">
<path d="M0 600 l0 -600 7200 0 7200 0 0 600 0 600 -7200 0 -7200 0 0 -600z
m1004 219 c48 -38 27 -97 -40 -108 -35 -6 -39 -9 -42 -39 -3 -26 -7 -32 -28
-32 -24 0 -24 1 -24 100 l0 100 54 0 c39 0 60 -6 80 -21z m224 5 c26 -18 30
-65 7 -88 -14 -14 -14 -19 5 -56 l20 -40 -28 0 c-23 0 -32 7 -45 35 -9 19 -21
35 -27 35 -5 0 -10 -16 -10 -35 0 -30 -3 -35 -24 -35 -23 0 -24 3 -28 93 -2
50 -3 95 -1 100 7 14 108 7 131 -9z m232 -4 c0 -17 -7 -20 -45 -20 -38 0 -45
-3 -45 -20 0 -16 7 -20 33 -20 38 0 48 -6 40 -26 -3 -8 -19 -14 -39 -14 -27 0
-34 -4 -34 -20 0 -17 7 -20 45 -20 38 0 45 -3 45 -20 0 -18 -7 -20 -70 -20
l-70 0 0 100 0 100 70 0 c63 0 70 -2 70 -20z m145 -50 l22 -65 20 65 c18 61
21 65 51 68 l32 3 0 -100 0 -101 -26 0 c-27 0 -27 0 -20 62 7 72 3 71 -23 -3
-24 -73 -48 -73 -72 0 -11 30 -20 56 -22 57 -2 2 -1 -23 1 -56 4 -59 4 -60
-22 -60 l-26 0 0 101 0 100 32 -3 c29 -3 33 -8 53 -68z m255 -30 l0 -100 -25
0 -25 0 0 100 0 100 25 0 25 0 0 -100z m210 80 c0 -17 -7 -20 -45 -20 -38 0
-45 -3 -45 -20 0 -17 7 -20 40 -20 43 0 43 0 34 -24 -4 -10 -18 -16 -40 -16
-27 0 -34 -4 -34 -20 0 -17 7 -20 45 -20 38 0 45 -3 45 -20 0 -18 -7 -20 -70
-20 l-70 0 0 100 0 100 70 0 c63 0 70 -2 70 -20z m188 4 c26 -18 30 -75 7 -94
-13 -10 -12 -17 5 -51 l20 -39 -28 0 c-23 0 -32 7 -45 35 -9 19 -21 35 -27 35
-5 0 -10 -16 -10 -35 0 -31 -3 -35 -25 -35 l-25 0 0 100 0 100 53 0 c31 0 61
-6 75 -16z m232 -4 c0 -17 -7 -20 -45 -20 -38 0 -45 -3 -45 -20 0 -17 7 -20
41 -20 33 0 40 -3 37 -17 -2 -13 -14 -19 -41 -21 -29 -3 -37 -7 -37 -23 0 -16
7 -19 45 -19 38 0 45 -3 45 -20 0 -18 -7 -20 -70 -20 l-70 0 0 100 0 100 70 0
c63 0 70 -2 70 -20z m-2110 -109 c136 -80 158 -97 148 -123 -10 -24 -288 -179
-309 -173 -18 6 -19 19 -19 184 0 98 3 181 7 184 14 15 44 3 173 -72z m521
-311 c3 0 9 14 13 30 7 39 25 39 33 0 8 -45 20 -45 27 0 3 22 10 40 15 40 5 0
7 -10 4 -22 -25 -109 -36 -124 -47 -63 -4 19 -11 35 -16 35 -5 0 -12 -16 -16
-35 -8 -47 -21 -44 -34 8 -6 23 -13 47 -15 54 -2 6 -1 14 3 18 4 4 11 -9 16
-29 5 -20 13 -36 17 -36z m356 51 c-3 -14 0 -17 15 -13 11 3 24 -1 29 -9 12
-19 11 -79 -1 -79 -5 0 -10 16 -10 36 0 28 -4 35 -17 32 -11 -2 -18 -13 -18
-31 -3 -55 -15 -39 -15 21 0 39 4 62 11 62 6 0 9 -8 6 -19z m1223 1 c0 -13 7
-18 23 -18 19 1 22 -4 24 -44 1 -41 1 -42 -5 -10 -5 22 -14 36 -24 38 -15 3
-18 -4 -18 -32 0 -20 -4 -36 -10 -36 -6 0 -10 27 -10 60 0 33 4 60 10 60 6 0
10 -8 10 -18z m970 8 c0 -5 -12 -10 -26 -10 -19 0 -25 -4 -22 -17 2 -10 11
-18 20 -18 9 0 20 -4 24 -8 4 -4 -5 -7 -19 -7 -22 0 -27 -5 -27 -25 0 -14 -4
-25 -10 -25 -11 0 -14 103 -3 113 10 11 63 8 63 -3z m190 -50 l0 -60 -30 0
c-22 0 -33 6 -41 24 -15 32 5 70 32 63 14 -4 19 0 19 14 0 10 5 19 10 19 6 0
10 -27 10 -60z m-2517 -8 c-4 -23 -2 -37 8 -43 11 -7 11 -9 -3 -9 -11 0 -20
10 -24 28 -3 15 -8 33 -10 41 -2 7 1 20 7 28 18 21 29 -2 22 -45z m1270 0 c-4
-23 -1 -37 8 -44 11 -7 9 -8 -6 -6 -23 4 -40 74 -22 96 16 20 26 -4 20 -46z
m-1325 26 c7 -7 12 -27 12 -46 0 -32 -2 -33 -32 -30 -25 2 -33 8 -33 23 0 13
8 21 23 23 12 2 22 8 22 14 0 6 -10 8 -25 4 -25 -6 -36 8 -12 17 21 9 32 8 45
-5z m150 -13 c3 -16 1 -18 -9 -7 -21 20 -39 14 -39 -12 0 -31 16 -42 37 -24
14 11 15 11 11 -2 -12 -36 -68 -17 -68 24 0 45 61 64 68 21z m220 -22 c2 -26
-1 -43 -7 -43 -6 0 -11 16 -11 35 0 24 -5 35 -15 35 -10 0 -15 -11 -15 -35 0
-19 -4 -35 -10 -35 -5 0 -10 19 -10 43 0 42 1 43 33 42 31 0 32 -2 35 -42z
m80 35 c22 -22 13 -38 -19 -38 -27 0 -30 -2 -19 -15 8 -10 21 -13 34 -9 16 5
18 3 10 -6 -7 -6 -22 -10 -35 -8 -18 2 -25 10 -27 31 -5 46 28 73 56 45z m43
-15 l11 -28 12 30 13 30 16 -35 c11 -25 16 -29 16 -15 1 11 6 27 12 35 8 11 9
5 4 -25 -9 -57 -22 -65 -37 -24 l-12 34 -8 -32 c-10 -40 -24 -42 -32 -5 -4 15
-9 35 -12 45 -9 28 6 20 17 -10z m267 -23 c4 -48 -7 -51 -12 -4 -2 17 -10 30
-20 32 -12 3 -16 -5 -16 -32 0 -20 -4 -36 -10 -36 -5 0 -10 16 -10 35 0 24 -5
35 -15 35 -10 0 -15 -11 -15 -35 0 -19 -4 -35 -10 -35 -5 0 -10 18 -10 39 0
44 6 47 75 46 l40 0 3 -45z m94 24 c15 -32 0 -59 -32 -59 -13 0 -28 8 -33 17
-15 23 6 68 33 68 12 0 25 -10 32 -26z m48 -23 c1 -9 7 -1 16 18 8 19 17 32
19 29 6 -6 -14 -69 -26 -82 -7 -8 -39 55 -39 78 1 17 30 -25 30 -43z m67 -18
c-2 -16 -4 -5 -4 22 0 28 2 40 4 28 2 -13 2 -35 0 -50z m87 51 c24 -23 19 -34
-15 -34 -20 0 -29 -4 -26 -12 2 -7 14 -12 26 -11 11 2 21 -2 21 -7 0 -14 -44
-12 -58 2 -7 7 -12 20 -12 29 0 18 25 49 40 49 5 0 16 -7 24 -16z m87 0 c11
-13 9 -14 -14 -9 -16 5 -27 3 -27 -3 0 -6 10 -12 23 -14 31 -4 30 -42 -2 -46
-25 -4 -50 13 -36 25 4 5 10 2 12 -4 6 -15 33 -17 33 -3 0 6 -11 15 -25 20
-28 11 -31 20 -13 38 16 16 33 15 49 -4z m127 4 c7 -7 12 -27 12 -46 0 -32 -2
-33 -32 -30 -25 2 -33 8 -33 23 0 13 8 21 23 23 12 2 22 8 22 14 0 6 -10 8
-25 4 -25 -6 -36 8 -12 17 21 9 32 8 45 -5z m273 2 c37 -20 15 -86 -27 -78
-28 5 -40 33 -26 62 13 28 23 31 53 16z m147 -3 c14 -10 16 -77 2 -77 -5 0
-10 16 -10 35 0 24 -5 35 -15 35 -10 0 -15 -11 -15 -35 0 -19 -4 -35 -10 -35
-5 0 -10 16 -10 36 0 27 -4 35 -16 32 -10 -2 -18 -15 -20 -32 -5 -46 -14 -43
-14 6 l0 45 48 -1 c26 -1 53 -5 60 -9z m90 1 c22 -22 13 -38 -19 -38 -27 0
-30 -2 -19 -15 8 -10 21 -13 34 -9 16 5 18 3 10 -6 -7 -6 -22 -10 -35 -8 -18
2 -25 10 -27 31 -5 46 28 73 56 45z m160 0 c20 -20 14 -38 -14 -38 -16 0 -24
-5 -21 -12 2 -7 14 -12 26 -11 13 2 20 -1 16 -7 -8 -14 -38 -13 -53 2 -24 24
-8 78 23 78 6 0 16 -5 23 -12z m46 -19 l13 -31 13 33 c6 19 14 29 16 23 5 -11
-23 -84 -31 -84 -5 0 -16 24 -29 68 -11 33 3 27 18 -9z m120 15 c24 -23 19
-34 -15 -34 -20 0 -29 -4 -26 -12 2 -7 14 -13 26 -12 11 0 21 -3 21 -8 0 -4
-11 -8 -25 -8 -22 0 -45 24 -45 49 0 12 28 41 40 41 5 0 16 -7 24 -16z m102
-11 c7 -28 24 -31 24 -4 0 11 5 23 11 27 9 5 10 -1 5 -21 -12 -49 -34 -95 -46
-95 -7 0 -7 6 1 18 8 13 7 27 -4 55 -20 47 -47 42 -47 -9 0 -19 -4 -34 -10
-34 -10 0 -14 72 -5 82 3 2 18 4 35 4 24 0 32 -5 36 -23z m234 17 c0 -4 -5
-10 -11 -12 -6 -2 -13 -16 -14 -32 -5 -46 -15 -43 -15 5 0 38 3 45 20 46 11 1
20 -2 20 -7z m27 -57 c-2 -16 -4 -5 -4 22 0 28 2 40 4 28 2 -13 2 -35 0 -50z
m178 57 c3 -5 8 -25 10 -45 5 -34 4 -35 -30 -35 -28 0 -35 4 -35 20 0 13 10
24 25 30 14 5 25 12 25 16 0 3 -11 4 -25 2 -26 -5 -35 6 -12 15 20 9 35 8 42
-3z m47 -21 l11 -31 14 32 c21 52 25 29 5 -31 -13 -35 -25 -55 -37 -58 -17 -3
-17 -2 -2 13 14 15 14 20 1 51 -8 19 -14 39 -14 45 0 20 11 9 22 -21z m-876
-76 c-11 -11 -17 4 -9 23 7 18 8 18 11 1 2 -10 1 -21 -2 -24z"/>
<path d="M920 775 c0 -23 4 -26 28 -23 19 2 27 9 27 23 0 14 -8 21 -27 23 -24
3 -28 0 -28 -23z"/>
<path d="M1150 775 c0 -22 4 -26 23 -23 14 2 22 10 22 23 0 13 -8 21 -22 23
-19 3 -23 -1 -23 -23z"/>
<path d="M2180 776 c0 -21 5 -26 26 -26 21 0 25 4 22 23 -2 14 -11 23 -25 25
-19 3 -23 -1 -23 -22z"/>
<path d="M3582 393 c2 -17 9 -28 18 -28 9 0 16 11 18 28 3 22 -1 27 -18 27
-17 0 -21 -5 -18 -27z"/>
<path d="M1025 381 c-3 -5 -1 -12 5 -16 12 -7 30 2 30 16 0 12 -27 12 -35 0z"/>
<path d="M1480 410 c0 -5 7 -10 15 -10 8 0 15 5 15 10 0 6 -7 10 -15 10 -8 0
-15 -4 -15 -10z"/>
<path d="M1872 393 c2 -17 9 -28 18 -28 9 0 16 11 18 28 3 22 -1 27 -18 27
-17 0 -21 -5 -18 -27z"/>
<path d="M2080 410 c0 -5 9 -10 20 -10 11 0 20 5 20 10 0 6 -9 10 -20 10 -11
0 -20 -4 -20 -10z"/>
<path d="M2295 381 c-3 -5 -1 -12 5 -16 12 -7 30 2 30 16 0 12 -27 12 -35 0z"/>
<path d="M2572 393 c2 -17 9 -28 18 -28 9 0 16 11 18 28 3 22 -1 27 -18 27
-17 0 -21 -5 -18 -27z"/>
<path d="M2810 410 c0 -5 7 -10 15 -10 8 0 15 5 15 10 0 6 -7 10 -15 10 -8 0
-15 -4 -15 -10z"/>
<path d="M2970 410 c0 -5 7 -10 15 -10 8 0 15 5 15 10 0 6 -7 10 -15 10 -8 0
-15 -4 -15 -10z"/>
<path d="M3130 410 c0 -5 9 -10 20 -10 11 0 20 5 20 10 0 6 -9 10 -20 10 -11
0 -20 -4 -20 -10z"/>
<path d="M3675 381 c-3 -5 -1 -12 5 -16 12 -7 30 2 30 16 0 12 -27 12 -35 0z"/>
</g>
</svg>
